{"title":"17.Again.(2009).(Dutchsubs-HC)-WaRlOrD","uid":5050514,"size":981549935,"categoryP":"video","categoryS":"movies","magnet":"?xt=urn:btih:e28e912885d29498696c01a4bfb345647f78a4b4&amp;dn=17.Again.%282009%29.%28Dutchsubs-HC%29-WaRlOrD&amp;tr=udp%3A%2F%2Ftracker.openbittorrent.com%3A80&amp;tr=udp%3A%2F%2Fopen.demonii.com%3A1337&amp;tr=udp%3A%2F%2Ftracker.coppersurfer.tk%3A6969&amp;tr=udp%3A%2F%2Fexodus.desync.com%3A6969","seeders":1,"leechers":0,"uploader":"bitpirate","files":2,"time":1250168811,"description":"((((((hardcoded Dutch subs))))))\n\nVerenigde Staten\nKomedie\n102 minuten\n\ngeregisseerd door Burr Steers\nmet Zac Efron, Matthew Perry en Michelle Trachtenberg\n\nHet leven van de 37-jarige Mike O'Donnell is een complete chaos. Het wordt nog een stuk gecompliceerder als hij na een ontmoeting met zijn geestelijke gids weer in het lichaam belandt van de 17-jarige scholier, die hij eens was, wiens leven zelf ook niet bepaald op rolletjes loopt.\n &lt;a href=&quot;\nhttp://www.moviemeter.nl/film/48230&quot; rel=&quot;nofollow&quot; target=&quot;_NEW&quot;&gt;\nhttp://www.moviemeter.nl/film/48230&lt;/a&gt;\n\nFormat : AVI\nFormat/Info : Audio Video Interleave\nFile size : 936 MiB\nDuration : 1h 37mn\nOverall bit rate : 1 340 Kbps\n\nVideo\nID : 0\nFormat : MPEG-4 Visual\nFormat profile : Simple@L1\nFormat settings, BVOP : No\nFormat settings, QPel : No\nFormat settings, GMC : No warppoints\nFormat settings, Matrix : Default (H.263)\nCodec ID : DIVX\nCodec ID/Info : Project Mayo\nCodec ID/Hint : DivX 4\nDuration : 1h 37mn\nBit rate : 1 200 Kbps\nWidth : 720 pixels\nHeight : 576 pixels\nDisplay aspect ratio : 5/4\nFrame rate : 25.000 fps\nStandard : PAL\nResolution : 24 bits\nColorimetry : 4:2:0\nScan type : Progressive\nBits/(Pixel*Frame) : 0.116\nStream size : 838 MiB (89%)\nWriting library : avc2.0.11.1110\n\nAudio\nID : 1\nFormat : MPEG Audio\nFormat version : Version 1\nFormat profile : Layer 3\nCodec ID : 55\nCodec ID/Hint : MP3\nDuration : 1h 37mn\nBit rate mode : Constant\nBit rate : 128 Kbps\nChannel(s) : 2 channels\nSampling rate : 48.0 KHz\nResolution : 16 bits\nStream size : 89.4 MiB (10%)\nAlignment : Aligned on interleaves\nInterleave, duration : 24 ms (0.60 video frame)\n","torrent":{"xt":"urn:btih:e28e912885d29498696c01a4bfb345647f78a4b4","amp;dn":"17.Again.%282009%29.%28Dutchsubs-HC%29-WaRlOrD","amp;tr":["udp%3A%2F%2Ftracker.openbittorrent.com%3A80","udp%3A%2F%2Fopen.demonii.com%3A1337","udp%3A%2F%2Ftracker.coppersurfer.tk%3A6969","udp%3A%2F%2Fexodus.desync.com%3A6969"],"infoHash":"e28e912885d29498696c01a4bfb345647f78a4b4","infoHashBuffer":{"type":"Buffer","data":[226,142,145,40,133,210,148,152,105,108,1,164,191,179,69,100,127,120,164,180]},"announce":[],"urlList":[]}}